<svg width="439" height="115" viewBox="0 0 439 115" fill="none" xmlns="http://www.w3.org/2000/svg">
<rect width="439" height="115" rx="11.541" fill="#101010"/>
<path d="M37.3582 37.6459C40.5781 37.6459 43.3653 38.1826 45.7197 39.2559C48.1086 40.3292 49.9437 41.8526 51.2247 43.8261C52.5058 45.7996 53.1463 48.1367 53.1463 50.8372C53.1463 53.5032 52.5058 55.8403 51.2247 57.8484C49.9437 59.8219 48.1086 61.3453 45.7197 62.4186C43.3653 63.4573 40.5781 63.9767 37.3582 63.9767H30.0355V74H21.6221V37.6459H37.3582ZM36.8908 57.1213C39.4183 57.1213 41.3399 56.5847 42.6555 55.5113C43.9712 54.4034 44.629 52.8454 44.629 50.8372C44.629 48.7945 43.9712 47.2365 42.6555 46.1631C41.3399 45.0552 39.4183 44.5012 36.8908 44.5012H30.0355V57.1213H36.8908ZM87.3013 67.2485V74H59.1528V37.6459H86.6261V44.3974H67.5143V52.2914H84.393V58.8351H67.5143V67.2485H87.3013ZM93.9955 37.6459H110.511C114.458 37.6459 117.937 38.4076 120.95 39.931C123.996 41.4198 126.351 43.5318 128.013 46.267C129.709 49.0022 130.557 52.1875 130.557 55.8229C130.557 59.4584 129.709 62.6437 128.013 65.3789C126.351 68.1141 123.996 70.2434 120.95 71.7668C117.937 73.2556 114.458 74 110.511 74H93.9955V37.6459ZM110.095 67.0927C113.731 67.0927 116.622 66.0887 118.768 64.0805C120.95 62.0378 122.04 59.2852 122.04 55.8229C122.04 52.3607 120.95 49.6254 118.768 47.6173C116.622 45.5746 113.731 44.5532 110.095 44.5532H102.409V67.0927H110.095ZM160.065 74L153.054 63.8728H152.638H145.316V74H136.902V37.6459H152.638C155.858 37.6459 158.646 38.1826 161 39.2559C163.389 40.3292 165.224 41.8526 166.505 43.8261C167.786 45.7996 168.427 48.1367 168.427 50.8372C168.427 53.5378 167.769 55.8749 166.453 57.8484C165.172 59.7873 163.337 61.2761 160.948 62.3148L169.102 74H160.065ZM159.909 50.8372C159.909 48.7945 159.251 47.2365 157.936 46.1631C156.62 45.0552 154.699 44.5012 152.171 44.5012H145.316V57.1732H152.171C154.699 57.1732 156.62 56.6193 157.936 55.5113C159.251 54.4034 159.909 52.8454 159.909 50.8372ZM192.698 74.6232C188.924 74.6232 185.514 73.8096 182.467 72.1823C179.455 70.555 177.083 68.3218 175.352 65.4828C173.656 62.609 172.807 59.3891 172.807 55.8229C172.807 52.2568 173.656 49.0542 175.352 46.2151C177.083 43.3414 179.455 41.0909 182.467 39.4636C185.514 37.8363 188.924 37.0227 192.698 37.0227C196.472 37.0227 199.865 37.8363 202.877 39.4636C205.889 41.0909 208.261 43.3414 209.992 46.2151C211.723 49.0542 212.589 52.2568 212.589 55.8229C212.589 59.3891 211.723 62.609 209.992 65.4828C208.261 68.3218 205.889 70.555 202.877 72.1823C199.865 73.8096 196.472 74.6232 192.698 74.6232ZM192.698 67.4563C194.845 67.4563 196.784 66.9715 198.515 66.0021C200.246 64.998 201.596 63.6131 202.566 61.8473C203.57 60.0816 204.072 58.0734 204.072 55.8229C204.072 53.5725 203.57 51.5643 202.566 49.7986C201.596 48.0328 200.246 46.6652 198.515 45.6957C196.784 44.6917 194.845 44.1896 192.698 44.1896C190.552 44.1896 188.613 44.6917 186.881 45.6957C185.15 46.6652 183.783 48.0328 182.779 49.7986C181.809 51.5643 181.324 53.5725 181.324 55.8229C181.324 58.0734 181.809 60.0816 182.779 61.8473C183.783 63.6131 185.15 64.998 186.881 66.0021C188.613 66.9715 190.552 67.4563 192.698 67.4563ZM227.325 44.3974V54.0052H244.152V60.7567H227.325V74H218.912V37.6459H246.385V44.3974H227.325ZM252.081 37.6459H260.494V67.1447H278.723V74H252.081V37.6459ZM283.424 37.6459H291.838V74H283.424V37.6459ZM323.368 74L314.591 61.3799L305.97 74H296.311L309.762 55.5113L296.986 37.6459H306.542L314.903 49.435L323.109 37.6459H332.197L319.525 55.1997L333.08 74H323.368Z" fill="#FE0D0D"/>
<rect x="352" y="36" width="67" height="38" rx="10" fill="#FE0D0D"/>
<path d="M395 54L380 62.6603L380 45.3397L395 54Z" fill="white"/>
</svg>
